<svg width="56" height="45" viewBox="0 0 56 45" fill="none" xmlns="http://www.w3.org/2000/svg">
<path d="M45.1096 4.08565V8.1713H49.1953H53.2809V4.08565V5.75185e-06H49.1953H45.1096V4.08565ZM51.7677 4.08565V6.65809H49.1953H46.6228V4.08565V1.51321H49.1953H51.7677V4.08565Z" fill="#E96ED2"/>
<path d="M48.5597 3.78302C48.4386 4.05539 48.4992 4.41856 48.6807 4.60015C49.1347 5.05411 50.0124 4.63041 49.8913 4.02513C49.7702 3.32906 48.8018 3.14747 48.5597 3.78302Z" fill="#E96ED2"/>
<path d="M17.5693 4.84225V6.96073H9.85197H2.13464V15.7373V24.5139H9.85197H17.5693V34.6523V44.7908H30.1289H42.6885V40.5538V36.3168H49.3465H56.0046V23.4546V10.5924H49.3465H42.6885V6.65809V2.72376H30.1289H17.5693V4.84225ZM41.4779 7.41469V10.5924H39.9647H38.4515V23.4546V36.3168H39.9647H41.4779V39.7972V43.2776H30.2802H19.0825V33.8957V24.5139H21.3523H23.6221V15.7373V6.96073H21.3523H19.0825V5.59885V4.23696H30.2802H41.4779V7.41469ZM22.1089 15.7373V23.0007H12.8784H3.64785V15.7373V8.47393H12.8784H22.1089V15.7373ZM54.7941 23.4546V34.8036H47.3794H39.9647V23.4546V12.1056H47.3794H54.7941V23.4546Z" fill="#E96ED2"/>
<path d="M25.1959 6.71863C25.2867 7.4147 25.3775 7.4147 30.0079 7.50549C33.8817 7.56602 34.7896 7.50549 35.0922 7.14232C35.8791 6.20414 35.1225 6.05282 30.0987 6.05282H25.1051L25.1959 6.71863Z" fill="#E96ED2"/>
<path d="M27.8894 14.7083C25.1354 17.0387 26.9512 21.4875 30.5224 21.094C32.9737 20.8217 34.3962 18.5821 33.6093 16.1913C32.883 13.982 29.7355 13.1649 27.8894 14.7083ZM31.8842 16.4031C32.3987 17.0689 32.4593 17.4018 32.2171 18.0676C31.5513 19.9743 29.0697 20.1559 28.3131 18.4005C27.8894 17.3716 27.9802 16.7965 28.7368 15.9492C29.4329 15.132 31.1276 15.3741 31.8842 16.4031Z" fill="#E96ED2"/>
<path d="M27.9802 22.5164C25.7407 23.4849 23.6222 27.51 23.6222 30.7785C23.6222 31.9891 23.6827 32.1101 24.288 32.0193C24.8933 31.9285 25.0143 31.6864 25.1959 30.1127C25.6499 26.5718 27.8592 23.6059 30.0987 23.6059C32.7317 23.6059 34.5778 26.2086 35.2738 30.9298C35.4252 31.8075 35.6068 32.0799 36.0304 32.0799C36.3634 32.0799 36.6357 31.8983 36.666 31.6864C37.0292 26.7231 33.9422 22.0625 30.2803 22.0927C29.5237 22.123 28.4947 22.3046 27.9802 22.5164Z" fill="#E96ED2"/>
<path d="M28.3131 37.6787C26.8605 39.1011 27.5565 41.7644 29.5237 42.2486C31.3093 42.7026 33.2764 40.7959 32.8527 39.0709C32.3382 36.9524 29.7961 36.1655 28.3131 37.6787ZM31.2185 39.0709C31.4909 39.6156 31.4303 39.8275 30.9461 40.3117C30.4619 40.7959 30.25 40.8565 29.7053 40.5841C29.1 40.2512 28.8276 39.0709 29.2816 38.6472C29.7053 38.1932 30.8856 38.4656 31.2185 39.0709Z" fill="#E96ED2"/>
<path d="M5.97821 11.4095C5.85715 11.5003 5.76636 11.8635 5.76636 12.1661C5.76636 12.6806 6.19005 12.7109 12.6968 12.7109C19.6878 12.7109 20.4747 12.5898 19.6878 11.6516C19.3852 11.2885 18.1141 11.1977 12.7271 11.1977C9.12567 11.1977 6.069 11.2885 5.97821 11.4095Z" fill="#E96ED2"/>
<path d="M5.97821 15.011C5.85715 15.132 5.76636 15.4952 5.76636 15.7978C5.76636 16.3123 6.12953 16.3426 12.8179 16.282C19.597 16.1912 19.8391 16.161 19.8391 15.586C19.8391 15.011 19.597 14.9807 12.9995 14.8899C9.24672 14.8596 6.09926 14.9202 5.97821 15.011Z" fill="#E96ED2"/>
<path d="M5.85711 18.915C5.76632 19.1874 5.82685 19.5506 5.97817 19.7019C6.12949 19.8532 8.52035 19.944 11.6981 19.9137C16.8732 19.8229 17.1153 19.7927 17.1153 19.2177C17.1153 18.6426 16.8732 18.6124 11.577 18.5216C6.76503 18.4611 6.0387 18.5216 5.85711 18.915Z" fill="#E96ED2"/>
<path d="M41.1753 17.7045V22.3954H47.2281H53.2809V17.7045V13.0135H47.2281H41.1753V17.7045ZM51.7677 17.7045V20.8822H47.2281H42.6885V17.7045V14.5267H47.2281H51.7677V17.7045Z" fill="#E96ED2"/>
<path d="M41.3871 24.302C40.9937 25.331 41.5687 25.4218 47.4096 25.3613C52.8874 25.2705 53.1296 25.2402 53.1296 24.6652C53.1296 24.0902 52.8874 24.0599 47.3491 23.9691C42.6885 23.9086 41.5082 23.9691 41.3871 24.302Z" fill="#E96ED2"/>
<path d="M41.3266 27.5403C41.2055 27.7219 41.2963 28.0548 41.4779 28.2969C41.7806 28.6601 42.8701 28.7509 47.1978 28.7509C50.1334 28.7509 52.7059 28.6298 52.948 28.4785C53.1901 28.3272 53.2809 27.9943 53.1901 27.7219C53.0085 27.2982 52.2519 27.2377 47.2584 27.2377C43.5964 27.2377 41.4477 27.3587 41.3266 27.5403Z" fill="#E96ED2"/>
<path d="M41.478 30.718C40.7214 31.6259 41.478 31.7772 47.2281 31.7772C52.9783 31.7772 53.7349 31.6259 52.9783 30.718C52.6757 30.3548 51.5559 30.264 47.2281 30.264C42.9004 30.264 41.7806 30.3548 41.478 30.718Z" fill="#E96ED2"/>
<path d="M0.318848 32.9878V38.7379H7.88486H15.4509V32.9878V27.2376H7.88486H0.318848V32.9878ZM13.9377 32.9878V37.2247H7.73354H1.52941V32.9878V28.7508H7.73354H13.9377V32.9878Z" fill="#E96ED2"/>
<path d="M4.8584 32.9878C4.8584 34.9852 4.94919 36.6195 5.03998 36.6195C5.40315 36.6195 11.2138 33.1694 11.2138 32.9575C11.2138 32.7457 5.37289 29.3561 5.03998 29.3561C4.94919 29.3561 4.8584 30.9904 4.8584 32.9878ZM8.18744 33.0181C8.18744 33.1694 6.82556 33.8957 6.52292 33.8957C6.43213 33.8957 6.3716 33.4115 6.3716 32.8365V31.8075L7.27952 32.322C7.76375 32.5944 8.18744 32.9273 8.18744 33.0181Z" fill="#E96ED2"/>
</svg>
